<svg width="343" height="634" viewBox="0 0 343 634" fill="none" xmlns="http://www.w3.org/2000/svg">
<path d="M155.91 233.124C154.122 231.317 152.293 221.24 150.011 220.217C151.717 224.19 150.478 225.242 150.469 229.601C150.491 232.077 150.216 234.545 149.652 236.949H110.988V205.159C110.988 202.303 111.522 199.474 112.56 196.835C113.597 194.196 115.118 191.799 117.035 189.779C118.952 187.759 121.228 186.157 123.733 185.064C126.238 183.971 128.923 183.408 131.634 183.408C132.669 183.43 133.697 183.588 134.694 183.88C138.017 184.826 141.046 186.675 143.477 189.243C145.908 191.811 147.655 195.007 148.543 198.511C151.491 209.861 156.178 228.754 155.91 233.124Z" fill="#2F2E41"/>
<path d="M113.257 272.232L113.276 247.454L99.4507 248.755L104.33 264.383L102.046 303.663C100.939 303.925 99.9276 304.52 99.1358 305.377C98.3441 306.234 97.8061 307.315 97.5875 308.489C97.3689 309.662 97.479 310.877 97.9046 311.986C98.3301 313.094 99.0526 314.048 99.984 314.732C100.915 315.415 102.015 315.799 103.15 315.835C104.285 315.871 105.405 315.559 106.374 314.936C107.343 314.313 108.119 313.407 108.607 312.327C109.095 311.248 109.275 310.042 109.124 308.857L113.257 272.232Z" fill="#FFB6B6"/>
<path d="M140.465 449.296L146.05 449.296L148.707 426.599H140.463L140.465 449.296Z" fill="#FFB6B6"/>
<path d="M138.573 446.393L147.402 445.838V449.824L155.797 455.931C156.212 456.233 156.524 456.666 156.688 457.168C156.852 457.67 156.86 458.214 156.71 458.721C156.56 459.228 156.26 459.671 155.855 459.985C155.449 460.3 154.958 460.469 154.454 460.469H143.942L142.131 456.527L141.423 460.469H137.46L138.573 446.393Z" fill="#2F2E41"/>
<path d="M108.169 449.296L113.755 449.296L116.411 426.599H108.168L108.169 449.296Z" fill="#FFB6B6"/>
<path d="M106.278 446.393L115.107 445.838V449.824L123.501 455.931C123.916 456.233 124.228 456.666 124.393 457.168C124.557 457.67 124.565 458.214 124.415 458.721C124.265 459.228 123.965 459.671 123.559 459.985C123.153 460.3 122.662 460.469 122.159 460.469H111.647L109.835 456.527L109.128 460.469H105.164L106.278 446.393Z" fill="#2F2E41"/>
<path d="M135.491 220.695L123.92 220.934L115.753 230.017L109.205 231.029C106.243 231.487 103.519 233.002 101.49 235.32C99.4611 237.639 98.2489 240.622 98.0563 243.769L99.1906 250.334H105.997L109.934 274.69C108.403 278.8 108.299 282.044 111.442 283.318L121.198 302.679L150.011 289.055C151.472 286.408 151.94 283.75 150.447 281.165L152.507 243.88H159.433C159.433 236.907 157.194 231.028 150.616 230.252C148.003 229.954 145.378 229.796 142.751 229.778L135.491 220.695Z" fill="#E6E6E6"/>
<path d="M150.011 289.055C150.011 289.055 121.878 294.313 111.442 283.319C111.442 283.319 110.382 285.214 108.786 288.356C108.327 289.26 107.44 289.872 106.904 290.967C106.418 291.962 105.166 293.185 104.636 294.314C104.209 295.222 104.893 296.408 104.45 297.389C99.1049 309.199 92.8607 325.858 94.1993 336.859C95.0626 343.953 96.8457 360.46 98.7236 378.19C98.8703 379.575 97.6819 381.354 97.8294 382.751C97.9684 384.067 99.4434 385 99.5824 386.32C99.6748 387.196 98.6448 388.09 98.7369 388.965C98.8379 389.925 100.061 390.867 100.162 391.823C102.734 416.304 105.089 439.159 105.089 439.159H118.248L120.731 386.959L118.702 367.931L123.466 329.449L130.046 366.019L130.892 386.601L137.845 440.115H150.011V388.31L150.918 385.619L150.011 382.167L150.918 378.448L150.011 374.398V289.055Z" fill="#2F2E41"/>
<path d="M139.042 213.626C137.25 216.135 134.7 217.925 131.813 218.703C128.926 219.481 125.873 219.199 123.158 217.905C120.443 216.611 118.227 214.381 116.875 211.583C115.523 208.785 115.116 205.585 115.721 202.511C116.326 199.437 117.907 196.671 120.203 194.67C122.5 192.668 125.374 191.55 128.354 191.5C131.334 191.45 134.241 192.47 136.597 194.393C138.953 196.316 140.617 199.027 141.315 202.079C141.352 202.245 141.384 202.41 141.415 202.581C141.784 204.494 141.763 206.468 141.354 208.372C140.945 210.276 140.157 212.067 139.042 213.626V213.626Z" fill="#FFB6B6"/>
<path d="M136.308 205.742C136.029 204.271 135.326 202.927 134.293 201.894C134.395 203.304 134.209 204.72 133.748 206.048C130.299 206.37 126.834 205.647 123.761 203.964C121.447 202.31 118.502 202.453 115.072 203.964C115.072 202.206 115.4 200.466 116.039 198.842C116.677 197.218 117.613 195.742 118.793 194.499C119.973 193.256 121.373 192.27 122.915 191.597C124.456 190.925 126.109 190.579 127.777 190.579H130.046C133.415 190.58 136.647 191.99 139.029 194.5C141.412 197.01 142.75 200.414 142.751 203.964C140.657 204.755 138.501 205.35 136.308 205.742V205.742Z" fill="#2F2E41"/>
<path d="M37.0506 376.34C57.2089 376.34 73.5505 359.124 73.5505 337.887C73.5505 316.65 57.2089 299.434 37.0506 299.434C16.8923 299.434 0.55069 316.65 0.55069 337.887C0.55069 359.124 16.8923 376.34 37.0506 376.34Z" fill="#F0F0F0"/>
<path d="M13.4219 211.404C13.3833 192.093 13.7089 172.809 14.3988 153.554C15.3849 126.041 16.4037 97.5905 31.8009 71.1183C42.5708 52.5998 59.8768 36.1832 81.8492 23.6438C96.7421 15.2623 112.905 9.10611 129.77 5.39148C160.475 -1.53623 192.481 -1.36643 223.099 5.8866C233.597 8.4288 243.807 11.9419 253.582 16.3756C295.688 35.574 323.997 70.6875 331.25 112.713C331.298 113.06 331.307 113.411 331.276 113.76C331.266 113.949 331.255 114.138 331.263 114.33L331.347 114.577C331.58 115.21 331.758 115.861 331.877 116.523C342.176 181.339 321.738 249.922 272.774 314.852C234.91 365.056 214.6 431.531 210.683 518.075L210.618 519.303C209.208 543.396 198.792 566.719 180.493 586.753C162.433 606.527 138.313 621.396 110.742 629.75C107.38 630.778 103.881 631.72 100.341 632.551C97.0522 633.325 93.608 633.278 90.344 632.414C87.08 631.55 84.1074 629.899 81.7153 627.621L81.7087 627.621L81.4748 627.406C80.9304 626.888 80.408 626.344 79.9216 625.786L79.3504 625.131C74.54 619.611 70.74 615.25 67.785 610.029C65.8275 606.546 64.3452 602.841 63.3737 599.003C57.9152 577.926 52.8506 556.521 48.3197 535.383C39.5136 494.331 32.2325 452.194 26.6796 410.142C17.9815 344.217 13.5539 277.846 13.4219 211.404ZM329.785 113.271C329.786 113.142 329.776 113.013 329.757 112.885C322.571 71.2527 294.54 36.4716 252.851 17.4636C243.173 13.0737 233.064 9.5953 222.67 7.07838C192.324 -0.108538 160.601 -0.275996 130.169 6.59009C113.466 10.2684 97.4574 16.3649 82.7069 24.6655C60.9499 37.0821 43.8174 53.3308 33.1612 71.6552C17.902 97.8898 16.8873 126.206 15.9069 153.59C12.8546 239.237 16.958 324.978 28.1785 410.006C33.7283 452.031 41.0043 494.14 49.8051 535.165C54.3323 556.289 59.3932 577.679 64.8488 598.742C65.7957 602.488 67.2418 606.104 69.152 609.502C72.0471 614.619 75.811 618.938 80.5756 624.405L81.1461 625.06C81.5646 625.539 82.0117 626.009 82.4765 626.459L82.6196 626.588C87.408 631.08 93.7174 632.817 99.929 631.356C103.431 630.533 106.893 629.601 110.22 628.584C166.544 611.517 206.284 567.578 209.111 519.247L209.177 518.025C210.966 478.493 216.073 443.892 224.791 412.25C235.198 374.477 250.911 341.487 271.494 314.196C320.27 249.514 340.632 181.218 330.382 116.684C330.271 116.082 330.108 115.489 329.894 114.911L329.762 114.466C329.749 114.213 329.752 113.959 329.77 113.706C329.777 113.557 329.785 113.412 329.785 113.271Z" fill="#F0F0F0"/>
<path d="M269.648 199.907C289.806 199.907 306.148 182.691 306.148 161.453C306.148 140.216 289.806 123 269.648 123C249.49 123 233.148 140.216 233.148 161.453C233.148 182.691 249.49 199.907 269.648 199.907Z" fill="#F0F0F0"/>
<path d="M335.491 165.647V252.843C335.491 254.654 334.813 256.392 333.604 257.68C332.395 258.967 330.752 259.7 329.033 259.719C329.009 259.721 328.985 259.722 328.961 259.722H319.328C311.621 259.722 304.229 256.496 298.779 250.754C293.329 245.013 290.267 237.225 290.267 229.105V165.647C290.267 163.823 290.955 162.073 292.179 160.783C293.404 159.493 295.065 158.768 296.796 158.768H300.7C298.891 164.325 323.434 166.665 324.781 158.768H328.961C330.693 158.768 332.354 159.493 333.579 160.783C334.803 162.073 335.491 163.823 335.491 165.647V165.647Z" fill="#6C63FF"/>
<path d="M306.904 152.248C306.905 152.009 306.995 151.78 307.155 151.611C307.316 151.442 307.533 151.347 307.76 151.346H313.579C313.805 151.347 314.022 151.442 314.182 151.611C314.342 151.78 314.432 152.009 314.432 152.248C314.432 152.486 314.342 152.715 314.182 152.884C314.022 153.053 313.805 153.149 313.579 153.149H307.76C307.533 153.149 307.316 153.054 307.155 152.885C306.995 152.716 306.905 152.487 306.904 152.248V152.248Z" fill="#3F3D56"/>
<path d="M330.961 270.782H294.163C291.308 270.779 288.571 269.582 286.552 267.455C284.533 265.329 283.398 262.445 283.395 259.437V198.484C283.192 198.331 283.028 198.13 282.914 197.896C282.801 197.663 282.742 197.405 282.742 197.143V191.013C282.742 190.751 282.801 190.492 282.914 190.259C283.028 190.026 283.192 189.825 283.395 189.672V188.026C283.192 187.874 283.028 187.672 282.914 187.439C282.801 187.206 282.742 186.948 282.742 186.686V180.555C282.742 180.293 282.801 180.035 282.914 179.801C283.028 179.568 283.192 179.367 283.395 179.214V176.241C283.145 176.099 282.937 175.889 282.792 175.633C282.647 175.377 282.57 175.084 282.571 174.786V168.655C282.57 168.357 282.647 168.064 282.792 167.808C282.937 167.551 283.145 167.341 283.395 167.2V159.052C283.398 156.044 284.533 153.161 286.552 151.034C288.571 148.907 291.308 147.711 294.163 147.708H330.961C333.815 147.711 336.553 148.907 338.571 151.034C340.59 153.161 341.725 156.044 341.729 159.052V176.813C341.923 176.941 342.083 177.118 342.193 177.329C342.304 177.54 342.363 177.777 342.363 178.018V189.707C342.363 189.948 342.304 190.185 342.193 190.396C342.083 190.607 341.923 190.785 341.729 190.912V259.437C341.725 262.445 340.59 265.329 338.571 267.455C336.553 269.582 333.815 270.779 330.961 270.782V270.782ZM294.163 149.216C291.687 149.218 289.314 150.256 287.564 152.1C285.813 153.944 284.829 156.444 284.826 159.052V168.483L284.137 168.511C284.102 168.512 284.068 168.528 284.043 168.555C284.018 168.582 284.003 168.618 284.003 168.655V174.786C284.003 174.823 284.018 174.859 284.043 174.886C284.068 174.913 284.102 174.929 284.137 174.93L284.826 174.958V180.273L284.281 180.414C284.251 180.422 284.224 180.44 284.205 180.465C284.185 180.491 284.174 180.522 284.174 180.555V186.686C284.174 186.718 284.185 186.75 284.205 186.775C284.224 186.801 284.251 186.819 284.281 186.826L284.826 186.968V190.731L284.281 190.872C284.251 190.88 284.224 190.898 284.205 190.923C284.185 190.948 284.174 190.98 284.174 191.013V197.143C284.174 197.175 284.185 197.207 284.205 197.233C284.224 197.258 284.251 197.276 284.281 197.284L284.826 197.425V259.437C284.829 262.045 285.813 264.546 287.564 266.39C289.314 268.234 291.687 269.271 294.163 269.274H330.961C333.436 269.271 335.809 268.234 337.56 266.39C339.31 264.546 340.294 262.045 340.297 259.437V189.621H340.931V178.104H340.297V159.052C340.294 156.444 339.31 153.944 337.56 152.1C335.809 150.256 333.436 149.218 330.961 149.216L294.163 149.216Z" fill="#3F3D56"/>
<path d="M316.831 153.149C317.303 153.149 317.686 152.746 317.686 152.248C317.686 151.75 317.303 151.346 316.831 151.346C316.358 151.346 315.975 151.75 315.975 152.248C315.975 152.746 316.358 153.149 316.831 153.149Z" fill="#3F3D56"/>
<path d="M130.684 326.881H34.935C33.5753 326.877 32.2722 326.307 31.3106 325.294C30.3491 324.281 29.8073 322.908 29.8036 321.476V272.324C29.8071 270.891 30.3487 269.518 31.3102 268.505C32.2716 267.492 33.5746 266.922 34.9343 266.918H130.684C132.043 266.921 133.346 267.492 134.308 268.505C135.269 269.518 135.811 270.89 135.815 272.323V321.475C135.812 322.907 135.27 324.28 134.308 325.293C133.347 326.306 132.044 326.877 130.684 326.881Z" fill="white"/>
<path d="M130.684 326.881H34.935C33.5753 326.877 32.2722 326.307 31.3106 325.294C30.3491 324.281 29.8073 322.908 29.8036 321.476V272.324C29.8071 270.891 30.3487 269.518 31.3102 268.505C32.2716 267.492 33.5746 266.922 34.9343 266.918H130.684C132.043 266.921 133.346 267.492 134.308 268.505C135.269 269.518 135.811 270.89 135.815 272.323V321.475C135.812 322.907 135.27 324.28 134.308 325.293C133.347 326.306 132.044 326.877 130.684 326.881ZM34.935 268.426C33.9544 268.429 33.0149 268.841 32.3216 269.571C31.6283 270.302 31.2377 271.291 31.235 272.324V321.475C31.2378 322.508 31.6286 323.498 32.322 324.228C33.0155 324.958 33.9551 325.37 34.9357 325.373H130.683C131.664 325.37 132.603 324.958 133.297 324.228C133.99 323.497 134.381 322.507 134.384 321.474V272.324C134.381 271.291 133.99 270.301 133.296 269.571C132.603 268.84 131.663 268.429 130.683 268.426L34.935 268.426Z" fill="#3F3D56"/>
<path d="M87.9413 319.617C69.0575 319.617 49.3668 319.427 42.02 319.304C41.0534 319.283 40.1329 318.864 39.455 318.138C38.7771 317.412 38.3955 316.435 38.3918 315.417V274.73C38.3922 274.365 38.5296 274.016 38.7741 273.757C39.0186 273.499 39.3503 273.354 39.6965 273.352H125.919C126.265 273.353 126.597 273.497 126.842 273.755C127.087 274.013 127.226 274.362 127.227 274.726V302.332C127.211 306.838 125.519 311.158 122.514 314.365C119.509 317.572 115.431 319.411 111.155 319.486C104.308 319.58 96.1996 319.617 87.9413 319.617Z" fill="#6C63FF"/>
<path d="M120.801 299.795H42.8921C42.2397 299.794 41.6037 299.58 41.0705 299.184C40.5374 298.788 40.1328 298.229 39.9119 297.582L31.0938 271.519C30.9238 271.017 30.8709 270.478 30.9393 269.95C31.0078 269.421 31.1957 268.917 31.4872 268.481C31.7787 268.045 32.1654 267.688 32.6147 267.442C33.064 267.196 33.5629 267.067 34.0694 267.066L131.454 266.923C131.917 266.922 132.374 267.029 132.794 267.235C133.214 267.441 133.585 267.741 133.883 268.115C134.18 268.488 134.396 268.926 134.516 269.398C134.635 269.869 134.655 270.362 134.574 270.842L134.649 270.875L134.37 271.563L134.367 271.57L123.707 297.775C123.464 298.375 123.059 298.886 122.542 299.246C122.026 299.605 121.42 299.796 120.801 299.795V299.795ZM131.459 268.431L34.0722 268.574C33.7947 268.574 33.5214 268.645 33.2753 268.78C33.0291 268.915 32.8173 269.11 32.6576 269.349C32.4978 269.588 32.3949 269.864 32.3574 270.153C32.3199 270.443 32.3489 270.738 32.4419 271.013L41.2597 297.075C41.3809 297.429 41.6027 297.735 41.8949 297.952C42.1871 298.169 42.5356 298.286 42.8931 298.287H120.801C121.14 298.288 121.471 298.183 121.754 297.986C122.037 297.79 122.258 297.51 122.391 297.181L133.051 270.976L133.576 271.212L133.051 270.976C133.164 270.698 133.21 270.395 133.185 270.094C133.159 269.793 133.063 269.504 132.905 269.251C132.748 268.999 132.533 268.792 132.28 268.649C132.028 268.506 131.745 268.431 131.459 268.431V268.431Z" fill="#3F3D56"/>
<path d="M82.664 305.469C86.0332 305.469 88.7645 302.591 88.7645 299.042C88.7645 295.492 86.0332 292.615 82.664 292.615C79.2948 292.615 76.5635 295.492 76.5635 299.042C76.5635 302.591 79.2948 305.469 82.664 305.469Z" fill="white"/>
<path d="M313.114 249.673C316.484 249.673 319.215 246.796 319.215 243.246C319.215 239.697 316.484 236.819 313.114 236.819C309.745 236.819 307.014 239.697 307.014 243.246C307.014 246.796 309.745 249.673 313.114 249.673Z" fill="white"/>
<path d="M159.086 266.495L159.105 241.717L145.28 243.019L150.159 258.646L132.448 286.931C131.34 287.193 130.329 287.789 129.537 288.646C128.746 289.503 128.208 290.584 127.989 291.757C127.77 292.931 127.881 294.146 128.306 295.254C128.732 296.363 129.454 297.317 130.386 298.001C131.317 298.684 132.417 299.067 133.551 299.103C134.686 299.14 135.806 298.827 136.775 298.204C137.744 297.582 138.52 296.675 139.008 295.596C139.497 294.516 139.677 293.311 139.526 292.125L159.086 266.495Z" fill="#FFB6B6"/>
</svg>
